<svg xmlns="http://www.w3.org/2000/svg" xmlns:xlink="http://www.w3.org/1999/xlink" version="1.0" x="0" y="0" width="2400" height="1755.1302672422871" viewBox="77.46050155639648 57.32546890258789 185.07899688720704 135.34906219482423" preserveAspectRatio="xMidYMid meet" color-interpolation-filters="sRGB"><g><defs><linearGradient id="92" x1="0%" y1="0%" x2="100%" y2="0%"><stop offset="0%" stop-color="#fa71cd"></stop> <stop offset="100%" stop-color="#9b59b6"></stop></linearGradient><linearGradient id="93" x1="0%" y1="0%" x2="100%" y2="0%"><stop offset="0%" stop-color="#f9d423"></stop> <stop offset="100%" stop-color="#f83600"></stop></linearGradient><linearGradient id="94" x1="0%" y1="0%" x2="100%" y2="0%"><stop offset="0%" stop-color="#0064d2"></stop> <stop offset="100%" stop-color="#1cb0f6"></stop></linearGradient><linearGradient id="95" x1="0%" y1="0%" x2="100%" y2="0%"><stop offset="0%" stop-color="#f00978"></stop> <stop offset="100%" stop-color="#3f51b1"></stop></linearGradient><linearGradient id="96" x1="0%" y1="0%" x2="100%" y2="0%"><stop offset="0%" stop-color="#7873f5"></stop> <stop offset="100%" stop-color="#ec77ab"></stop></linearGradient><linearGradient id="97" x1="0%" y1="0%" x2="100%" y2="0%"><stop offset="0%" stop-color="#f9d423"></stop> <stop offset="100%" stop-color="#e14fad"></stop></linearGradient><linearGradient id="98" x1="0%" y1="0%" x2="100%" y2="0%"><stop offset="0%" stop-color="#009efd"></stop> <stop offset="100%" stop-color="#2af598"></stop></linearGradient><linearGradient id="99" x1="0%" y1="0%" x2="100%" y2="0%"><stop offset="0%" stop-color="#ffcc00"></stop> <stop offset="100%" stop-color="#00b140"></stop></linearGradient><linearGradient id="100" x1="0%" y1="0%" x2="100%" y2="0%"><stop offset="0%" stop-color="#d51007"></stop> <stop offset="100%" stop-color="#ff8177"></stop></linearGradient><linearGradient id="102" x1="0%" y1="0%" x2="100%" y2="0%"><stop offset="0%" stop-color="#a2b6df"></stop> <stop offset="100%" stop-color="#0c3483"></stop></linearGradient><linearGradient id="103" x1="0%" y1="0%" x2="100%" y2="0%"><stop offset="0%" stop-color="#7ac5d8"></stop> <stop offset="100%" stop-color="#eea2a2"></stop></linearGradient><linearGradient id="104" x1="0%" y1="0%" x2="100%" y2="0%"><stop offset="0%" stop-color="#00ecbc"></stop> <stop offset="100%" stop-color="#007adf"></stop></linearGradient><linearGradient id="105" x1="0%" y1="0%" x2="100%" y2="0%"><stop offset="0%" stop-color="#b88746"></stop> <stop offset="100%" stop-color="#fdf5a6"></stop></linearGradient></defs><g fill="#000000" class="icon-text-wrapper icon-svg-group iconsvg" transform="translate(79.2750015258789,59.13996887207031)"><g class="iconsvg-imagesvg" transform="translate(55.92499923706055,0)"><g><rect fill="#000000" fill-opacity="0" stroke-width="2" x="0" y="0" width="69.60000000000001" height="87.24537762456912" class="image-rect"></rect> <svg filter="url(#colors1244977425)" x="0" y="0" width="69.60000000000001" height="87.24537762456912" filtersec="colorsf8153609725" class="image-svg-svg primary" style="overflow: visible;"><svg xmlns="http://www.w3.org/2000/svg" viewBox="14.101921081542969 5 71.7975082397461 90" x="0px" y="0px"><path d="M42.585,71.38647s-9.74975.6399-9.66138.04694,11.72388-.376,17.79761-12.1059c-7.40039,3.18659-11.52588.67554-11.41064-.098S48.99707,61.634,58.60107,46.94849c-5.25756,2.83459-12.22045,2.69525-12.08642,1.79626.13379-.899,12.08642-1.79626,19.18213-15.60467-6.28491,3.61694-9.8877,1.92529-9.8877,1.92529C74.94238,28.08734,64.84216,5,64.84216,5,62.05457,25.28687,2.98376,45.6698,22.3208,67.30945c-1.95569.95862-9.23157-5.7431-8.1001-3.68128,2.3512,4.28485,4.33155,7.85425,7.61866,9.41333,5.001-12.64593,11.62475-29.48693,34.64379-47.2099.009-.007-33.35009,30.5083-36.19384,66.6258-.08,1.01648,4.83789-3.77417,4.856-3.9046.27906-2.02765,1.41822-10.4004,3.78565-13.499A27.43861,27.43861,0,0,0,42.585,71.38647Z"></path><path d="M83.16821,74.29694c-9.77624,3.75744-14.158,13.27984-15.2268,15.97424l-2.52832-5.23193a3.58344,3.58344,0,0,0-6.83716,0L56.01831,90.333,54.8396,87.895c-1.55054-3.20831-3.67163-3.68738-4.79858-3.68738-1.12671,0-3.24793.47907-4.79834,3.68689L44.056,90.35059a8.13872,8.13872,0,0,0-5.54675-3.78833,16.77325,16.77325,0,0,0-9.12451.76629c-.08606.55084-.17151,1.12622-.25562,1.73786-.19751,1.39532-.82715,2.15759-2.628,3.82238.48852-.2016.97986-.41479,1.48071-.63861,2.67224-1.19445,5.70154-2.54876,9.74793-1.74756a4.0785,4.0785,0,0,1,2.91552,1.98829A3.90581,3.90581,0,0,0,44.064,95a3.90561,3.90561,0,0,0,3.41846-2.50909l1.377-2.84882c.563-1.165,1.08264-1.4176,1.18164-1.4176.09814,0,.61889.25256,1.18176,1.41858l1.37683,2.84735a3.58358,3.58358,0,0,0,6.8374,0l2.55762-5.29364,2.55847,5.2951a3.5837,3.5837,0,0,0,6.83728-.001l.09314-.228c.03626-.10547,3.7168-10.60016,13.12634-14.21686a2.00838,2.00838,0,1,0-1.44165-3.74914Z"></path></svg></svg> <defs><filter id="colors1244977425"><feColorMatrix type="matrix" values="0 0 0 0 0  0 0 0 0 0  0 0 0 0 0  0 0 0 1 0" class="icon-feColorMatrix "></feColorMatrix></filter> <filter id="colorsf8153609725"><feColorMatrix type="matrix" values="0 0 0 0 0.99609375  0 0 0 0 0.99609375  0 0 0 0 0.99609375  0 0 0 1 0" class="icon-fecolormatrix"></feColorMatrix></filter> <filter id="colorsb7709983633"><feColorMatrix type="matrix" values="0 0 0 0 0  0 0 0 0 0  0 0 0 0 0  0 0 0 1 0" class="icon-fecolormatrix"></feColorMatrix></filter></defs></g></g> <g transform="translate(0,94.24537658691406)"><g fill-rule="" class="tp-name iconsvg-namesvg" transform="translate(0,0)"><g transform="scale(1)"><g><path d="M2.51-5.7L2.51-15.18Q2.51-16.42 2.48-17.34 2.45-18.27 2.39-18.94 2.33-19.62 2.25-20.07 2.17-20.52 2.08-20.83L2.08-20.83 2.08-20.89Q2.37-20.87 2.69-20.87L2.69-20.87Q2.97-20.86 3.31-20.86 3.66-20.86 4.02-20.86L4.02-20.86Q4.54-20.86 5.44-20.96 6.34-21.06 7.75-21.06L7.75-21.06Q9.06-21.06 10.17-20.72 11.27-20.38 12.08-19.74 12.89-19.1 13.35-18.16 13.81-17.22 13.81-16.02L13.81-16.02Q13.81-15.02 13.53-14.22 13.25-13.43 12.75-12.84 12.25-12.25 11.54-11.85 10.84-11.45 9.99-11.22L9.99-11.22Q11.23-11.03 12.25-10.58 13.27-10.14 14.01-9.47 14.74-8.8 15.14-7.9 15.54-7.01 15.54-5.91L15.54-5.91Q15.54-2.84 13.52-1.3 11.49 0.23 7.46 0.23L7.46 0.23Q7.02 0.23 6.44 0.2 5.86 0.16 5.25 0.12 4.65 0.07 4.06 0.04 3.48 0 3.04 0L3.04 0 2.08 0 2.08-0.06Q2.17-0.36 2.25-0.82 2.33-1.27 2.39-1.94 2.45-2.61 2.48-3.53 2.51-4.46 2.51-5.7L2.51-5.7ZM7.85-10.33L7.85-10.33Q6.86-10.33 6.19-10.25 5.52-10.18 5.16-10.11L5.16-10.11 5.16-5.7Q5.16-3.99 5.21-2.88 5.27-1.78 5.37-1.08L5.37-1.08Q5.93-1.01 6.48-0.95 7.04-0.89 7.37-0.89L7.37-0.89Q10.09-0.89 11.35-2.1 12.61-3.32 12.61-5.84L12.61-5.84Q12.61-6.83 12.32-7.65 12.02-8.48 11.43-9.07 10.84-9.67 9.94-10 9.05-10.33 7.85-10.33ZM5.16-19.78L5.16-11.42Q5.56-11.38 5.88-11.37 6.21-11.36 6.57-11.36L6.57-11.36Q7.56-11.36 8.38-11.65 9.19-11.93 9.77-12.5 10.34-13.07 10.66-13.92 10.98-14.77 10.98-15.91L10.98-15.91Q10.98-16.85 10.75-17.62 10.52-18.4 10.06-18.94 9.6-19.49 8.93-19.78 8.26-20.07 7.4-20.07L7.4-20.07Q6.85-20.07 6.43-20.03 6.02-19.98 5.72-19.93L5.72-19.93Q5.39-19.87 5.16-19.78L5.16-19.78ZM28.58-3.76L28.01-4.92Q27.62-4.92 27.03-4.92 26.44-4.92 25.74-4.92 25.04-4.92 24.3-4.92 23.55-4.92 22.88-4.92 22.21-4.91 21.66-4.9 21.11-4.89 20.8-4.89L20.8-4.89 20.26-3.76Q19.91-3.06 19.66-2.54 19.42-2.02 19.26-1.63 19.1-1.24 19.02-0.95 18.95-0.67 18.95-0.42L18.95-0.42Q18.95-0.26 18.96-0.18 18.98-0.1 19.01-0.06L19.01-0.06 19.01 0 16.44 0 16.44-0.06Q16.55-0.16 16.77-0.5 16.98-0.84 17.27-1.34 17.55-1.84 17.88-2.46 18.21-3.09 18.53-3.76L18.53-3.76 24.47-16.02 25.56-16.02 31.39-3.76Q31.72-3.06 32.07-2.42 32.41-1.78 32.7-1.27 32.99-0.77 33.21-0.44 33.43-0.12 33.5-0.06L33.5-0.06 33.5 0 29.77 0Q29.8-0.12 29.8-0.21 29.8-0.31 29.8-0.42L29.8-0.42Q29.8-0.74 29.66-1.19 29.53-1.65 29.33-2.12 29.13-2.59 28.92-3.03 28.71-3.47 28.58-3.76L28.58-3.76ZM24.47-12.53L21.37-6.06 22.26-6.06Q22.87-6.06 23.56-6.07 24.25-6.07 24.95-6.07 25.65-6.07 26.31-6.08 26.96-6.09 27.49-6.09L27.49-6.09 24.47-12.53ZM38.22-9.67L38.22-1.14Q39.58-1.14 40.72-1.25 41.86-1.35 42.72-1.49L42.72-1.49Q43.73-1.65 44.54-1.85L44.54-1.85 44.21 0.09Q44 0.07 43.52 0.05 43.03 0.03 42.49 0.02 41.95 0.01 41.48 0.01 41.02 0 40.84 0L40.84 0 35.26 0 35.26-0.06Q35.37-0.36 35.45-0.84 35.53-1.33 35.58-2.03 35.63-2.74 35.66-3.71 35.69-4.69 35.69-6L35.69-6 35.69-9.67Q35.69-10.98 35.66-11.95 35.63-12.92 35.58-13.63 35.53-14.33 35.45-14.81 35.37-15.29 35.26-15.6L35.26-15.6 35.26-15.66 38.63-15.66 38.63-15.6Q38.53-15.29 38.45-14.81 38.38-14.33 38.33-13.63 38.28-12.92 38.25-11.95 38.22-10.98 38.22-9.67L38.22-9.67ZM50-9.67L50-1.14Q51.36-1.14 52.5-1.25 53.65-1.35 54.51-1.49L54.51-1.49Q55.51-1.65 56.33-1.85L56.33-1.85 55.99 0.09Q55.79 0.07 55.3 0.05 54.81 0.03 54.27 0.02 53.73 0.01 53.27 0.01 52.8 0 52.63 0L52.63 0 47.05 0 47.05-0.06Q47.15-0.36 47.23-0.84 47.31-1.33 47.36-2.03 47.41-2.74 47.44-3.71 47.47-4.69 47.47-6L47.47-6 47.47-9.67Q47.47-10.98 47.44-11.95 47.41-12.92 47.36-13.63 47.31-14.33 47.23-14.81 47.15-15.29 47.05-15.6L47.05-15.6 47.05-15.66 50.41-15.66 50.41-15.6Q50.31-15.29 50.24-14.81 50.16-14.33 50.11-13.63 50.06-12.92 50.03-11.95 50-10.98 50-9.67L50-9.67ZM58-7.88L58-7.88Q58-9.6 58.65-11.07 59.3-12.54 60.42-13.63 61.54-14.71 63.07-15.32 64.6-15.94 66.35-15.94L66.35-15.94Q68.07-15.94 69.59-15.36 71.11-14.78 72.24-13.72 73.37-12.66 74.02-11.14 74.68-9.63 74.68-7.75L74.68-7.75Q74.68-6.19 74.13-4.74 73.57-3.29 72.51-2.18 71.45-1.06 69.89-0.4 68.33 0.26 66.32 0.26L66.32 0.26Q64.61 0.26 63.1-0.31 61.58-0.87 60.45-1.93 59.31-2.99 58.66-4.49 58-6 58-7.88ZM66.68-0.77L66.68-0.77Q67.79-0.77 68.72-1.21 69.65-1.65 70.33-2.46 71.01-3.28 71.38-4.45 71.75-5.62 71.75-7.09L71.75-7.09Q71.75-8.77 71.39-10.2 71.04-11.62 70.32-12.67 69.6-13.71 68.52-14.3 67.44-14.89 66-14.89L66-14.89Q64.89-14.89 63.96-14.46 63.03-14.04 62.35-13.24 61.67-12.44 61.29-11.27 60.91-10.11 60.91-8.62L60.91-8.62Q60.91-6.96 61.29-5.53 61.66-4.09 62.38-3.04 63.1-1.98 64.18-1.38 65.26-0.77 66.68-0.77ZM81.37-6L81.37-14.58Q80.04-14.58 78.95-14.46 77.87-14.35 77.08-14.22L77.08-14.22Q76.18-14.06 75.45-13.87L75.45-13.87 75.74-15.75Q75.96-15.72 76.46-15.7 76.95-15.69 77.5-15.68 78.04-15.67 78.53-15.67 79.02-15.66 79.21-15.66L79.21-15.66 86.1-15.66Q86.27-15.66 86.75-15.67 87.22-15.67 87.76-15.68 88.3-15.69 88.79-15.7 89.29-15.72 89.51-15.75L89.51-15.75 89.8-13.87Q89.1-14.06 88.2-14.22L88.2-14.22Q87.42-14.35 86.34-14.46 85.25-14.58 83.9-14.58L83.9-14.58 83.9-6Q83.9-4.69 83.93-3.71 83.96-2.74 84.01-2.03 84.06-1.33 84.13-0.84 84.21-0.36 84.31-0.06L84.31-0.06 84.31 0 80.94 0 80.94-0.06Q81.04-0.36 81.12-0.84 81.19-1.33 81.25-2.03 81.31-2.74 81.34-3.71 81.37-4.69 81.37-6L81.37-6ZM119.27 0L115.27 0 115.27-0.06Q115.3-0.13 115.32-0.28 115.33-0.42 115.33-0.54L115.33-0.54Q115.33-0.99 115.21-1.54 115.09-2.08 114.74-2.9L114.74-2.9 112.97-6.86Q112.16-6.89 110.8-6.89 109.45-6.89 107.88-6.89L107.88-6.89Q106.72-6.89 105.65-6.89 104.58-6.89 103.72-6.86L103.72-6.86 102.05-3.02Q101.83-2.48 101.58-1.84 101.33-1.19 101.33-0.54L101.33-0.54Q101.33-0.35 101.36-0.23 101.39-0.1 101.42-0.06L101.42-0.06 101.42 0 98.45 0 98.45-0.06Q98.71-0.34 99.11-1.04 99.5-1.75 99.97-2.81L99.97-2.81 108.31-21.32 109.48-21.32 117.39-3.52Q117.66-2.9 117.96-2.31 118.26-1.72 118.52-1.25 118.78-0.79 118.99-0.47 119.19-0.15 119.27-0.06L119.27-0.06 119.27 0ZM104.26-8.14L105.84-8.14Q106.68-8.14 107.57-8.15 108.46-8.16 109.31-8.16 110.16-8.17 110.95-8.18 111.73-8.19 112.38-8.2L112.38-8.2 108.28-17.45 104.26-8.14ZM133.86-3.34L134.04-3.25 132.9-0.54Q132.48-0.35 131.95-0.2 131.41-0.04 130.85 0.06 130.28 0.16 129.69 0.21 129.1 0.26 128.57 0.26L128.57 0.26Q126.74 0.26 125.17-0.28 123.61-0.82 122.47-1.86 121.33-2.9 120.69-4.41 120.05-5.93 120.05-7.88L120.05-7.88Q120.05-9.6 120.72-11.07 121.39-12.54 122.57-13.63 123.75-14.71 125.36-15.32 126.97-15.94 128.85-15.94L128.85-15.94Q129.27-15.94 129.75-15.9 130.22-15.86 130.69-15.79 131.15-15.72 131.59-15.62 132.03-15.53 132.4-15.43L132.4-15.43 133.5-12.8 133.32-12.7Q132.93-13.18 132.38-13.59 131.84-14 131.19-14.28 130.54-14.57 129.83-14.73 129.11-14.89 128.37-14.89L128.37-14.89Q127.16-14.89 126.16-14.46 125.16-14.04 124.46-13.23 123.75-12.42 123.36-11.26 122.97-10.09 122.97-8.62L122.97-8.62Q122.97-6.96 123.34-5.53 123.72-4.09 124.48-3.04 125.24-1.98 126.37-1.38 127.51-0.77 129.02-0.77L129.02-0.77Q129.75-0.77 130.46-0.95 131.17-1.14 131.8-1.47 132.43-1.81 132.96-2.28 133.48-2.75 133.86-3.34L133.86-3.34ZM149.37-3.34L149.55-3.25 148.41-0.54Q147.99-0.35 147.46-0.2 146.93-0.04 146.36 0.06 145.79 0.16 145.2 0.21 144.61 0.26 144.09 0.26L144.09 0.26Q142.25 0.26 140.68-0.28 139.12-0.82 137.98-1.86 136.85-2.9 136.21-4.41 135.56-5.93 135.56-7.88L135.56-7.88Q135.56-9.6 136.23-11.07 136.9-12.54 138.08-13.63 139.26-14.71 140.87-15.32 142.48-15.94 144.36-15.94L144.36-15.94Q144.79-15.94 145.26-15.9 145.73-15.86 146.2-15.79 146.66-15.72 147.1-15.62 147.54-15.53 147.92-15.43L147.92-15.43 149.01-12.8 148.83-12.7Q148.44-13.18 147.89-13.59 147.35-14 146.7-14.28 146.05-14.57 145.34-14.73 144.62-14.89 143.88-14.89L143.88-14.89Q142.67-14.89 141.68-14.46 140.68-14.04 139.97-13.23 139.26-12.42 138.87-11.26 138.48-10.09 138.48-8.62L138.48-8.62Q138.48-6.96 138.86-5.53 139.24-4.09 139.99-3.04 140.75-1.98 141.89-1.38 143.02-0.77 144.54-0.77L144.54-0.77Q145.27-0.77 145.97-0.95 146.68-1.14 147.31-1.47 147.95-1.81 148.47-2.28 148.99-2.75 149.37-3.34L149.37-3.34ZM151.91-15.66L151.91-15.66Q153.34-15.66 154.84-15.67 156.34-15.67 157.62-15.69 158.9-15.72 159.82-15.75 160.75-15.77 161.04-15.83L161.04-15.83 160.47-14.26Q160.08-14.36 159.58-14.45L159.58-14.45Q159.15-14.52 158.53-14.59 157.91-14.65 157.09-14.65L157.09-14.65Q156.8-14.65 156.42-14.63 156.04-14.61 155.69-14.58L155.69-14.58Q155.29-14.55 154.86-14.52L154.86-14.52 154.86-8.77Q156.04-8.78 156.99-8.83 157.94-8.87 158.61-8.94L158.61-8.94Q159.39-9 159.99-9.1L159.99-9.1 159.64-7.37Q158.84-7.47 158.03-7.55L158.03-7.55Q157.33-7.62 156.48-7.67 155.64-7.72 154.86-7.72L154.86-7.72 154.86-1.11Q156.22-1.11 157.36-1.22 158.49-1.33 159.34-1.46L159.34-1.46Q160.33-1.62 161.13-1.82L161.13-1.82 160.79 0.09Q160.57 0.07 160.09 0.05 159.6 0.03 159.07 0.02 158.54 0.01 158.07 0.01 157.6 0 157.43 0L157.43 0 151.91 0 151.91-0.06Q152.01-0.36 152.09-0.84 152.17-1.33 152.22-2.03 152.27-2.74 152.3-3.71 152.33-4.69 152.33-6L152.33-6 152.33-9.67Q152.33-10.98 152.3-11.95 152.27-12.92 152.22-13.63 152.17-14.33 152.09-14.81 152.01-15.29 151.91-15.6L151.91-15.6 151.91-15.66ZM171.54-15.09L171.47-12.61 171.18-12.61Q171.09-12.86 170.89-13.24 170.7-13.62 170.37-13.98 170.04-14.35 169.56-14.6 169.08-14.86 168.41-14.86L168.41-14.86Q167.9-14.86 167.5-14.69 167.1-14.52 166.82-14.23 166.55-13.94 166.4-13.54 166.26-13.14 166.26-12.67L166.26-12.67Q166.26-11.91 166.71-11.23 167.17-10.55 167.86-9.87 168.54-9.19 169.34-8.51 170.14-7.82 170.83-7.08 171.51-6.34 171.97-5.51 172.43-4.68 172.43-3.73L172.43-3.73Q172.43-3.03 172.18-2.29 171.92-1.54 171.35-0.95 170.79-0.35 169.9 0.04 169.01 0.42 167.74 0.42L167.74 0.42Q167.04 0.42 166.41 0.31 165.77 0.19 165.24 0.02 164.71-0.15 164.3-0.34 163.88-0.54 163.6-0.71L163.6-0.71 163.87-3.47 164.17-3.47Q164.32-2.96 164.6-2.45 164.89-1.94 165.3-1.52 165.72-1.11 166.28-0.85 166.84-0.6 167.57-0.6L167.57-0.6Q168.08-0.6 168.53-0.76 168.98-0.93 169.31-1.24 169.63-1.54 169.82-1.99 170.01-2.43 170.01-2.99L170.01-2.99Q170.01-3.64 169.75-4.2 169.49-4.76 169.05-5.28 168.61-5.8 168.07-6.28 167.52-6.76 166.94-7.25 166.36-7.75 165.81-8.27 165.26-8.78 164.83-9.38 164.39-9.98 164.13-10.65 163.87-11.33 163.87-12.15L163.87-12.15Q163.87-13.01 164.23-13.69 164.59-14.38 165.19-14.85 165.79-15.32 166.56-15.58 167.33-15.83 168.16-15.83L168.16-15.83Q168.78-15.83 169.31-15.75 169.84-15.66 170.27-15.53 170.7-15.41 171.02-15.29 171.34-15.16 171.54-15.09L171.54-15.09ZM182.64-15.09L182.57-12.61 182.28-12.61Q182.19-12.86 181.99-13.24 181.8-13.62 181.47-13.98 181.14-14.35 180.66-14.6 180.18-14.86 179.51-14.86L179.51-14.86Q179-14.86 178.6-14.69 178.2-14.52 177.92-14.23 177.65-13.94 177.5-13.54 177.35-13.14 177.35-12.67L177.35-12.67Q177.35-11.91 177.81-11.23 178.27-10.55 178.96-9.87 179.64-9.19 180.44-8.51 181.24-7.82 181.93-7.08 182.61-6.34 183.07-5.51 183.53-4.68 183.53-3.73L183.53-3.73Q183.53-3.03 183.28-2.29 183.02-1.54 182.45-0.95 181.88-0.35 181 0.04 180.11 0.42 178.84 0.42L178.84 0.42Q178.14 0.42 177.51 0.31 176.87 0.19 176.34 0.02 175.81-0.15 175.4-0.34 174.98-0.54 174.7-0.71L174.7-0.71 174.97-3.47 175.27-3.47Q175.42-2.96 175.7-2.45 175.99-1.94 176.4-1.52 176.82-1.11 177.38-0.85 177.94-0.6 178.67-0.6L178.67-0.6Q179.18-0.6 179.63-0.76 180.08-0.93 180.41-1.24 180.73-1.54 180.92-1.99 181.11-2.43 181.11-2.99L181.11-2.99Q181.11-3.64 180.85-4.2 180.59-4.76 180.15-5.28 179.71-5.8 179.17-6.28 178.62-6.76 178.04-7.25 177.46-7.75 176.91-8.27 176.36-8.78 175.93-9.38 175.49-9.98 175.23-10.65 174.97-11.33 174.97-12.15L174.97-12.15Q174.97-13.01 175.33-13.69 175.69-14.38 176.29-14.85 176.89-15.32 177.66-15.58 178.43-15.83 179.26-15.83L179.26-15.83Q179.87-15.83 180.41-15.75 180.94-15.66 181.37-15.53 181.8-15.41 182.12-15.29 182.44-15.16 182.64-15.09L182.64-15.09Z" transform="translate(-2.0799999237060547, 21.31999969482422)"></path></g> </g></g> <g fill-rule="" class="tp-slogan iconsvg-slogansvg" fill="#000000" transform="translate(5.000007629394531,28.740001678466797)"><rect x="0" height="1" y="3.8650007247924805" width="69.2599983215332"></rect> <rect height="1" y="3.8650007247924805" width="69.2599983215332" x="102.18999862670898"></rect> <g transform="translate(72.2599983215332,0)"><g transform="scale(1)"><path d="M2.07-7.95L2.07-3.72Q2.65-3.62 3.13-3.70Q3.60-3.79 3.95-4.06Q4.29-4.34 4.48-4.82Q4.67-5.29 4.67-5.98L4.67-5.98Q4.67-6.45 4.57-6.84Q4.47-7.23 4.27-7.50Q4.08-7.78 3.78-7.92Q3.48-8.07 3.08-8.07L3.08-8.07Q2.83-8.07 2.64-8.05Q2.46-8.03 2.33-8.01L2.33-8.01Q2.17-7.98 2.07-7.95L2.07-7.95ZM0.84-8.38L0.84-8.40Q0.96-8.39 1.08-8.38L1.08-8.38Q1.20-8.37 1.33-8.36Q1.47-8.36 1.62-8.36L1.62-8.36Q1.85-8.36 2.24-8.42Q2.63-8.47 3.23-8.47L3.23-8.47Q3.79-8.47 4.27-8.31Q4.75-8.14 5.10-7.83Q5.45-7.51 5.65-7.06Q5.84-6.60 5.84-6.02L5.84-6.02Q5.84-5.24 5.53-4.68Q5.22-4.11 4.70-3.76Q4.18-3.40 3.50-3.28Q2.82-3.15 2.07-3.26L2.07-3.26L2.07-2.29Q2.07-1.79 2.09-1.42Q2.10-1.05 2.12-0.78Q2.14-0.51 2.18-0.33Q2.21-0.15 2.24-0.02L2.24-0.02L2.24 0L0.84 0L0.84-0.02Q0.87-0.15 0.91-0.33Q0.94-0.51 0.96-0.78Q0.98-1.05 1.00-1.42Q1.01-1.79 1.01-2.29L1.01-2.29L1.01-6.11Q1.01-6.60 1.00-6.98Q0.98-7.35 0.96-7.62Q0.94-7.89 0.91-8.07Q0.87-8.26 0.84-8.38L0.84-8.38ZM8.22-3.61L8.22-2.29Q8.22-1.79 8.24-1.42Q8.25-1.05 8.27-0.78Q8.29-0.51 8.32-0.33Q8.36-0.15 8.39-0.02L8.39-0.02L8.39 0L6.98 0L6.98-0.02Q7.02-0.15 7.05-0.33Q7.08-0.51 7.11-0.78Q7.13-1.05 7.14-1.42Q7.15-1.79 7.15-2.29L7.15-2.29L7.15-6.11Q7.15-6.60 7.14-6.98Q7.13-7.35 7.11-7.62Q7.08-7.89 7.05-8.07Q7.02-8.26 6.98-8.38L6.98-8.38L6.98-8.40Q7.10-8.39 7.23-8.38L7.23-8.38Q7.34-8.37 7.48-8.36Q7.62-8.36 7.76-8.36L7.76-8.36Q7.99-8.36 8.38-8.42Q8.77-8.47 9.38-8.47L9.38-8.47Q9.94-8.47 10.42-8.32Q10.89-8.17 11.24-7.88Q11.60-7.58 11.79-7.16Q11.99-6.73 11.99-6.19L11.99-6.19Q11.99-5.77 11.88-5.41Q11.77-5.05 11.58-4.76Q11.38-4.46 11.10-4.24Q10.83-4.01 10.49-3.86L10.49-3.86L12.54-0.97Q12.70-0.76 12.83-0.60Q12.96-0.44 13.08-0.33Q13.20-0.22 13.31-0.14Q13.42-0.07 13.54-0.02L13.54-0.02L13.54 0L11.85 0Q11.83-0.11 11.73-0.30Q11.64-0.48 11.51-0.66L11.51-0.66L9.43-3.59Q9.15-3.56 8.84-3.56Q8.54-3.56 8.22-3.61L8.22-3.61ZM8.22-7.95L8.22-4.07Q8.79-3.96 9.27-4.04Q9.75-4.11 10.09-4.37Q10.44-4.63 10.63-5.07Q10.82-5.51 10.82-6.15L10.82-6.15Q10.82-6.59 10.72-6.94Q10.62-7.30 10.42-7.55Q10.22-7.80 9.93-7.94Q9.63-8.07 9.23-8.07L9.23-8.07Q8.98-8.07 8.79-8.05Q8.60-8.03 8.47-8.01L8.47-8.01Q8.32-7.98 8.22-7.95L8.22-7.95ZM17.91-8.54L17.91-8.54Q18.88-8.54 19.71-8.22Q20.54-7.90 21.15-7.33Q21.75-6.75 22.09-5.94Q22.43-5.13 22.43-4.15L22.43-4.15Q22.43-3.60 22.30-3.06Q22.17-2.52 21.92-2.04Q21.67-1.56 21.31-1.15Q20.95-0.74 20.48-0.45Q20.02-0.15 19.45 0.01Q18.89 0.18 18.24 0.18L18.24 0.18Q17.26 0.18 16.43-0.13Q15.60-0.45 15-1.02Q14.40-1.59 14.06-2.40Q13.72-3.21 13.72-4.19L13.72-4.19Q13.72-4.75 13.85-5.29Q13.97-5.82 14.22-6.31Q14.47-6.80 14.83-7.20Q15.19-7.61 15.66-7.91Q16.13-8.21 16.69-8.38Q17.26-8.54 17.91-8.54ZM18.24-0.35L18.24-0.35Q18.89-0.35 19.43-0.58Q19.97-0.81 20.36-1.26Q20.75-1.71 20.96-2.35Q21.18-2.99 21.18-3.80L21.18-3.80Q21.18-4.71 20.97-5.48Q20.77-6.25 20.36-6.81Q19.95-7.38 19.33-7.70Q18.72-8.02 17.91-8.02L17.91-8.02Q17.26-8.02 16.72-7.78Q16.18-7.55 15.79-7.11Q15.40-6.67 15.18-6.04Q14.96-5.40 14.96-4.58L14.96-4.58Q14.96-3.69 15.17-2.91Q15.38-2.13 15.79-1.56Q16.20-1.00 16.81-0.67Q17.43-0.35 18.24-0.35ZM27.29-8.16L27.25-7.07L27.12-7.07Q27.08-7.20 26.97-7.37Q26.87-7.54 26.70-7.69Q26.54-7.84 26.30-7.94Q26.06-8.04 25.74-8.04L25.74-8.04Q25.45-8.04 25.23-7.95Q25.01-7.86 24.86-7.71Q24.71-7.55 24.63-7.33Q24.56-7.11 24.56-6.85L24.56-6.85Q24.56-6.43 24.79-6.04Q25.03-5.66 25.39-5.29Q25.75-4.91 26.16-4.54Q26.58-4.16 26.94-3.76Q27.29-3.35 27.53-2.91Q27.77-2.47 27.77-1.96L27.77-1.96Q27.77-1.58 27.64-1.19Q27.50-0.81 27.23-0.50Q26.95-0.20 26.52-0.01Q26.09 0.18 25.49 0.18L25.49 0.18Q25.15 0.18 24.85 0.12Q24.55 0.06 24.30-0.03Q24.04-0.12 23.84-0.23Q23.64-0.33 23.51-0.42L23.51-0.42L23.64-1.72L23.79-1.72Q23.85-1.44 24-1.19Q24.15-0.94 24.36-0.75Q24.57-0.56 24.85-0.45Q25.13-0.33 25.45-0.33L25.45-0.33Q25.75-0.33 25.99-0.42Q26.23-0.52 26.40-0.68Q26.57-0.84 26.66-1.06Q26.75-1.28 26.75-1.55L26.75-1.55Q26.75-1.92 26.61-2.23Q26.48-2.54 26.26-2.82Q26.04-3.11 25.76-3.37Q25.48-3.63 25.19-3.90Q24.90-4.17 24.62-4.45Q24.34-4.73 24.12-5.05Q23.90-5.37 23.77-5.73Q23.63-6.10 23.63-6.54L23.63-6.54Q23.63-7.00 23.81-7.37Q23.99-7.75 24.28-8.01Q24.58-8.27 24.96-8.41Q25.33-8.55 25.73-8.55L25.73-8.55Q26.02-8.55 26.27-8.51Q26.51-8.46 26.71-8.40Q26.91-8.33 27.05-8.27Q27.20-8.20 27.29-8.16L27.29-8.16Z" transform="translate(-0.837890625, 8.5546875)"></path></g></g></g></g></g><defs v-gra="od"></defs></g></svg>